<svg xmlns="http://www.w3.org/2000/svg" viewBox="0 0 800 800" >
<title>icon</title>
<g id="07">

		<rect x="119.4" y="318.5" transform="matrix(1 -1.989670e-03 1.989670e-03 1 -0.7963 0.4013)" class="st0" width="163.8" height="163.8"/>

		<rect x="320.3" y="318.1" transform="matrix(1 -1.989670e-03 1.989670e-03 1 -0.7951 0.8011)" class="st0" width="163.8" height="163.8"/>

		<rect x="521.2" y="317.7" transform="matrix(1 -1.989670e-03 1.989670e-03 1 -0.7939 1.2008)" class="st0" width="163.8" height="163.8"/>

		<rect x="119.2" y="243.3" transform="matrix(1 -1.989670e-03 1.989670e-03 1 -0.5195 0.8003)" class="st0" width="565.6" height="36.4"/>

		<rect x="119.7" y="520.3" transform="matrix(1 -1.999996e-03 1.999996e-03 1 -1.0762 0.8061)" class="st0" width="565.6" height="36.4"/>
</g>
</svg>
